<svg width="17" height="14" viewBox="0 0 17 14" xmlns="http://www.w3.org/2000/svg" xmlns:xlink="http://www.w3.org/1999/xlink"><defs><linearGradient x1="49.285%" y1="0%" x2="49.285%" y2="94.794%" id="d"><stop stop-color="#FF2D01" stop-opacity="0" offset="0%"/><stop stop-color="#FF3201" stop-opacity=".201" offset="100%"/></linearGradient><linearGradient x1="50%" y1="100%" x2="50%" y2="0%" id="c"><stop stop-color="#E77730" stop-opacity=".698" offset="0%"/><stop stop-color="#EF3152" stop-opacity=".304" offset="100%"/></linearGradient><path d="M16.998 4.658a6.922 6.922 0 0 1-2.003.557 3.537 3.537 0 0 0 1.533-1.955 6.888 6.888 0 0 1-2.215.856A3.46 3.46 0 0 0 11.768 3C9.842 3 8.28 4.583 8.28 6.535c0 .278.03.547.09.806-2.898-.147-5.467-1.554-7.187-3.692-.3.52-.472 1.128-.472 1.776 0 1.226.616 2.308 1.55 2.94a3.45 3.45 0 0 1-1.578-.441v.044c0 1.713 1.2 3.14 2.797 3.466a3.438 3.438 0 0 1-1.574.06c.443 1.404 1.73 2.426 3.257 2.454A6.94 6.94 0 0 1 0 15.413 9.78 9.78 0 0 0 5.346 17c6.415 0 9.922-5.386 9.922-10.056 0-.153-.004-.305-.01-.456a7.125 7.125 0 0 0 1.74-1.83z" id="a"/><mask id="b" x="0" y="0" width="16.998" height="14" fill="#fff"><use xlink:href="#a"/></mask></defs><use mask="url(#b)" xlink:href="#a" transform="translate(0 -3)" stroke="url(#c)" stroke-width="7" fill="url(#d)" fill-rule="evenodd"/></svg>